<svg width="32" height="32" viewBox="0 0 100 100" fill="none" xmlns="http://www.w3.org/2000/svg">
  <circle cx="14" cy="25" r="6" fill="#c4910f" opacity="0.85"/>
  <circle cx="14" cy="50" r="6" fill="#c4910f" opacity="0.85"/>
  <circle cx="14" cy="75" r="6" fill="#c4910f" opacity="0.85"/>
  <line x1="20" y1="25" x2="38" y2="22" stroke="#d4961a" stroke-width="1.5" opacity="0.35"/>
  <line x1="20" y1="50" x2="38" y2="40" stroke="#d4961a" stroke-width="1" opacity="0.35"/>
  <line x1="20" y1="50" x2="38" y2="58" stroke="#d4961a" stroke-width="1" opacity="0.35"/>
  <line x1="20" y1="75" x2="38" y2="76" stroke="#d4961a" stroke-width="1.5" opacity="0.35"/>
  <circle cx="44" cy="22" r="7" fill="#a82830" opacity="0.85"/>
  <circle cx="44" cy="40" r="7" fill="#2840a0" opacity="0.85"/>
  <circle cx="44" cy="58" r="6.5" fill="#a87810" opacity="0.85"/>
  <circle cx="44" cy="76" r="6" fill="#2a7a50" opacity="0.75"/>
  <line x1="51" y1="22" x2="74" y2="30" stroke="#a82830" stroke-width="1.8" opacity="0.5"/>
  <line x1="51" y1="40" x2="74" y2="30" stroke="#2840a0" stroke-width="1.8" opacity="0.5"/>
  <line x1="50" y1="76" x2="74" y2="68" stroke="#2a7a50" stroke-width="2" opacity="0.5"/>
  <path d="M80 24 Q82 18 80 14 Q84 18 86 14 Q84 20 86 24 Q84 28 83 30 Q82 28 80 30 Q81 28 80 24Z" fill="#c0483a" opacity="0.75"/>
  <path d="M77 64 L81 68 L89 60" stroke="#2a7a50" stroke-width="2.5" stroke-linecap="round" stroke-linejoin="round" fill="none" opacity="0.7"/>
</svg>
